<svg width="47" height="46" viewBox="0 0 47 46" fill="none" xmlns="http://www.w3.org/2000/svg">
<path d="M1 6.625C1 5.13316 1.59263 3.70242 2.64752 2.64752C3.70242 1.59263 5.13316 1 6.625 1L40.375 1C41.8668 1 43.2976 1.59263 44.3525 2.64752C45.4074 3.70242 46 5.13316 46 6.625V29.125C46 30.6168 45.4074 32.0476 44.3525 33.1025C43.2976 34.1574 41.8668 34.75 40.375 34.75H13.4144C12.6685 34.7502 11.9533 35.0466 11.4259 35.5741L3.40187 43.5981C3.20537 43.7951 2.95483 43.9294 2.68198 43.984C2.40912 44.0385 2.12621 44.0109 1.86906 43.9046C1.61191 43.7983 1.39207 43.6181 1.23737 43.3868C1.08267 43.1556 1.00006 42.8836 1 42.6053V6.625ZM15.0625 17.875C15.0625 17.1291 14.7662 16.4137 14.2387 15.8863C13.7113 15.3588 12.9959 15.0625 12.25 15.0625C11.5041 15.0625 10.7887 15.3588 10.2613 15.8863C9.73382 16.4137 9.4375 17.1291 9.4375 17.875C9.4375 18.6209 9.73382 19.3363 10.2613 19.8637C10.7887 20.3912 11.5041 20.6875 12.25 20.6875C12.9959 20.6875 13.7113 20.3912 14.2387 19.8637C14.7662 19.3363 15.0625 18.6209 15.0625 17.875ZM26.3125 17.875C26.3125 17.1291 26.0162 16.4137 25.4887 15.8863C24.9613 15.3588 24.2459 15.0625 23.5 15.0625C22.7541 15.0625 22.0387 15.3588 21.5113 15.8863C20.9838 16.4137 20.6875 17.1291 20.6875 17.875C20.6875 18.6209 20.9838 19.3363 21.5113 19.8637C22.0387 20.3912 22.7541 20.6875 23.5 20.6875C24.2459 20.6875 24.9613 20.3912 25.4887 19.8637C26.0162 19.3363 26.3125 18.6209 26.3125 17.875ZM34.75 20.6875C35.4959 20.6875 36.2113 20.3912 36.7387 19.8637C37.2662 19.3363 37.5625 18.6209 37.5625 17.875C37.5625 17.1291 37.2662 16.4137 36.7387 15.8863C36.2113 15.3588 35.4959 15.0625 34.75 15.0625C34.0041 15.0625 33.2887 15.3588 32.7613 15.8863C32.2338 16.4137 31.9375 17.1291 31.9375 17.875C31.9375 18.6209 32.2338 19.3363 32.7613 19.8637C33.2887 20.3912 34.0041 20.6875 34.75 20.6875V20.6875Z" fill="white" stroke="#BA10A4" stroke-width="2"/>
</svg>
