<svg width="36" height="45" viewBox="0 0 36 45" fill="none" xmlns="http://www.w3.org/2000/svg">
<path d="M19.93 0.129368C17.2413 -0.54282 14.7437 1.49062 14.5637 4.12312C14.3612 7.07905 13.9169 9.79312 13.36 11.4075C13.0084 12.42 12.0128 14.2566 10.435 16.0172C8.86844 17.7694 6.82938 19.3303 4.44156 19.9828C2.55156 20.4975 0.625 22.1344 0.625 24.525V35.7778C0.625 38.1544 2.54312 39.8953 4.6975 40.1231C7.70688 40.4437 9.09625 41.2903 10.5137 42.1566L10.6488 42.2409C11.4138 42.705 12.2744 43.2197 13.3769 43.6022C14.4934 43.9847 15.7984 44.2125 17.5 44.2125H27.3438C29.9791 44.2125 31.8409 42.8709 32.7831 41.22C33.2385 40.4409 33.4846 39.5573 33.4975 38.655C33.4975 38.2275 33.4328 37.7775 33.2809 37.35C33.8463 36.6103 34.3497 35.7244 34.6534 34.8159C34.9628 33.8878 35.1372 32.6728 34.6647 31.5844C34.8587 31.2187 35.0022 30.8278 35.1119 30.4509C35.3284 29.6916 35.4297 28.8534 35.4297 28.0406C35.4297 27.2306 35.3284 26.3953 35.1119 25.6331C35.0135 25.2827 34.8836 24.942 34.7237 24.615C35.2162 23.9143 35.5331 23.1056 35.6476 22.2568C35.7621 21.4081 35.671 20.5443 35.3819 19.7381C34.8025 18.0731 33.4637 16.6444 32.0069 16.1606C29.6247 15.3675 26.9359 15.3844 24.9306 15.5672C24.5143 15.6046 24.0989 15.6515 23.6847 15.7078C24.6604 11.5295 24.6005 7.17613 23.5103 3.02624C23.3206 2.36134 22.9568 1.75917 22.4564 1.28201C21.956 0.804858 21.3372 0.470038 20.6641 0.31218L19.93 0.129368ZM27.3438 41.4028H17.5C16.0656 41.4028 15.0728 41.2087 14.2938 40.9416C13.5034 40.6687 12.8706 40.3003 12.1113 39.8362L11.9988 39.7687C10.4378 38.8153 8.62937 37.7128 4.99562 37.3275C4.05906 37.2262 3.4375 36.5119 3.4375 35.7806V24.525C3.4375 23.8106 4.07312 22.9978 5.18125 22.6969C8.26094 21.8531 10.7416 19.8956 12.5331 17.8931C14.3191 15.8962 15.5256 13.7447 16.015 12.33C16.6984 10.3612 17.1597 7.35749 17.3706 4.31437C17.4409 3.29624 18.3831 2.64374 19.2466 2.85749L19.9834 3.04312C20.4334 3.15562 20.7091 3.44531 20.7934 3.76031C21.942 8.13661 21.8004 12.7517 20.3856 17.0494C20.3055 17.2884 20.2912 17.5446 20.3441 17.791C20.3969 18.0375 20.5151 18.2652 20.6861 18.4504C20.8572 18.6355 21.0749 18.7713 21.3164 18.8435C21.558 18.9157 21.8145 18.9216 22.0591 18.8606L22.0675 18.8578L22.1069 18.8494L22.27 18.81C23.2317 18.6058 24.2047 18.4583 25.1838 18.3684C27.0484 18.1997 29.2816 18.2166 31.1181 18.8297C31.6103 18.9928 32.3837 19.6734 32.7212 20.6578C33.0222 21.5241 32.9659 22.5422 31.9731 23.5322L30.9803 24.525L31.9731 25.5206C32.0941 25.6416 32.2684 25.9172 32.4063 26.4066C32.5413 26.8762 32.6172 27.4472 32.6172 28.0406C32.6172 28.6369 32.5413 29.205 32.4063 29.6775C32.2656 30.1669 32.0941 30.4425 31.9731 30.5634L30.9803 31.5562L31.9731 32.5519C32.1053 32.6841 32.2797 33.0497 31.9872 33.9244C31.6824 34.7726 31.1979 35.5449 30.5669 36.1884L29.5741 37.1812L30.5669 38.1769C30.5837 38.1909 30.6822 38.3175 30.6822 38.655C30.6697 39.0675 30.5526 39.4701 30.3419 39.825C29.8778 40.635 28.9272 41.4 27.3438 41.4V41.4028Z" fill="#BA10A4"/>
</svg>
